<mxfile host="app.diagrams.net" version="27.2.0">
  <diagram name="Professional Use Case Specification" id="ganttoverview_spec">
    <mxGraphModel dx="1138" dy="408" grid="1" gridSize="10" guides="1" tooltips="1" connect="1" arrows="1" fold="1" page="1" pageScale="1" pageWidth="827" pageHeight="1169" background="#ffffff" math="0" shadow="0">
      <root>
        <mxCell id="0" />
        <mxCell id="1" parent="0" />
        <mxCell id="spec-container-ganttoverview" value="" style="rounded=0;whiteSpace=wrap;html=1;shadow=0;strokeWidth=1;fillColor=none;verticalAlign=top;align=left;spacingLeft=10;spacingTop=10;" parent="1" vertex="1">
          <mxGeometry x="40" y="40" width="740" height="1100" as="geometry" />
        </mxCell>
        <mxCell id="title-ganttoverview" value="&lt;b style=&quot;font-size: 14px;&quot;&gt;Đặc tả use case 'Tổng quan Biểu đồ Gantt'&lt;/b&gt;" style="text;html=1;strokeColor=none;fillColor=none;align=left;verticalAlign=middle;whiteSpace=wrap;rounded=0;spacingLeft=5;fontFamily=Helvetica;" parent="spec-container-ganttoverview" vertex="1">
          <mxGeometry width="740" height="40" as="geometry" />
        </mxCell>
        <mxCell id="table-info" value="" style="shape=table;startSize=0;container=1;collapsible=0;childLayout=tableLayout;fixedRows=1;rowLines=1;fontStyle=0;align=center;resizeLast=1;fontFamily=Helvetica;fontSize=12;" parent="spec-container-ganttoverview" vertex="1">
          <mxGeometry y="40" width="740" height="210" as="geometry" />
        </mxCell>
        <mxCell id="info-row1" style="shape=tableRow;horizontal=0;startSize=0;swimlaneHead=0;swimlaneBody=0;top=0;left=0;bottom=0;right=0;collapsible=0;dropTarget=0;fillColor=none;" parent="table-info" vertex="1">
          <mxGeometry width="740" height="30" as="geometry" />
        </mxCell>
        <mxCell id="info-r1c1" value="&lt;b&gt;Tên use case&lt;/b&gt;" style="shape=partialRectangle;html=1;collapsible=0;dropTarget=0;pointerEvents=0;fillColor=none;top=0;left=0;bottom=0;right=0;strokeColor=inherit;align=left;verticalAlign=middle;spacingLeft=5;" parent="info-row1" vertex="1">
          <mxGeometry width="220" height="30" as="geometry" />
        </mxCell>
        <mxCell id="info-r1c2" value="Tổng quan Biểu đồ Gantt" style="shape=partialRectangle;html=1;collapsible=0;dropTarget=0;pointerEvents=0;fillColor=none;top=0;left=0;bottom=0;right=0;strokeColor=inherit;align=left;verticalAlign=middle;spacingLeft=5;" parent="info-row1" vertex="1">
          <mxGeometry x="220" width="520" height="30" as="geometry" />
        </mxCell>
        <mxCell id="info-row2" style="shape=tableRow;horizontal=0;startSize=0;swimlaneHead=0;swimlaneBody=0;top=0;left=0;bottom=0;right=0;collapsible=0;dropTarget=0;fillColor=none;" parent="table-info" vertex="1">
          <mxGeometry y="30" width="740" height="60" as="geometry" />
        </mxCell>
        <mxCell id="info-r2c1" value="&lt;b&gt;Mô tả sơ lược&lt;/b&gt;" style="shape=partialRectangle;html=1;collapsible=0;dropTarget=0;pointerEvents=0;fillColor=none;top=0;left=0;bottom=0;right=0;strokeColor=inherit;align=left;verticalAlign=middle;spacingLeft=5;whiteSpace=wrap;" parent="info-row2" vertex="1">
          <mxGeometry width="220" height="60" as="geometry" />
        </mxCell>
        <mxCell id="info-r2c2" value="Chức năng này cho phép quản lý và người dùng xem tổng quan tất cả các dự án dưới dạng biểu đồ Gantt, lọc, tìm kiếm, phân tích dữ liệu và điều hướng đến chi tiết từng dự án." style="shape=partialRectangle;html=1;collapsible=0;dropTarget=0;pointerEvents=0;fillColor=none;top=0;left=0;bottom=0;right=0;strokeColor=inherit;align=left;verticalAlign=middle;spacingLeft=5;whiteSpace=wrap;" parent="info-row2" vertex="1">
          <mxGeometry x="220" width="520" height="60" as="geometry" />
        </mxCell>
        <mxCell id="info-row3" style="shape=tableRow;horizontal=0;startSize=0;swimlaneHead=0;swimlaneBody=0;top=0;left=0;bottom=0;right=0;collapsible=0;dropTarget=0;fillColor=none;" parent="table-info" vertex="1">
          <mxGeometry y="90" width="740" height="30" as="geometry" />
        </mxCell>
        <mxCell id="info-r3c1" value="&lt;b&gt;Actor chính&lt;/b&gt;" style="shape=partialRectangle;html=1;collapsible=0;dropTarget=0;pointerEvents=0;fillColor=none;top=0;left=0;bottom=0;right=0;strokeColor=inherit;align=left;verticalAlign=middle;spacingLeft=5;" parent="info-row3" vertex="1">
          <mxGeometry width="220" height="30" as="geometry" />
        </mxCell>
        <mxCell id="info-r3c2" value="Quản lý / Người dùng" style="shape=partialRectangle;html=1;collapsible=0;dropTarget=0;pointerEvents=0;fillColor=none;top=0;left=0;bottom=0;right=0;strokeColor=inherit;align=left;verticalAlign=middle;spacingLeft=5;" parent="info-row3" vertex="1">
          <mxGeometry x="220" width="520" height="30" as="geometry" />
        </mxCell>
        <mxCell id="info-row4" style="shape=tableRow;horizontal=0;startSize=0;swimlaneHead=0;swimlaneBody=0;top=0;left=0;bottom=0;right=0;collapsible=0;dropTarget=0;fillColor=none;" parent="table-info" vertex="1">
          <mxGeometry y="120" width="740" height="30" as="geometry" />
        </mxCell>
        <mxCell id="info-r4c1" value="&lt;b&gt;Tiền điều kiện (Pre-condition)&lt;/b&gt;" style="shape=partialRectangle;html=1;collapsible=0;dropTarget=0;pointerEvents=0;fillColor=none;top=0;left=0;bottom=0;right=0;strokeColor=inherit;align=left;verticalAlign=middle;spacingLeft=5;" parent="info-row4" vertex="1">
          <mxGeometry width="220" height="30" as="geometry" />
        </mxCell>
        <mxCell id="info-r4c2" value="Người dùng đã đăng nhập vào hệ thống và có quyền truy cập tổng quan các dự án." style="shape=partialRectangle;html=1;collapsible=0;dropTarget=0;pointerEvents=0;fillColor=none;top=0;left=0;bottom=0;right=0;strokeColor=inherit;align=left;verticalAlign=middle;spacingLeft=5;" parent="info-row4" vertex="1">
          <mxGeometry x="220" width="520" height="30" as="geometry" />
        </mxCell>
        <mxCell id="info-row5" style="shape=tableRow;horizontal=0;startSize=0;swimlaneHead=0;swimlaneBody=0;top=0;left=0;bottom=0;right=0;collapsible=0;dropTarget=0;fillColor=none;" parent="table-info" vertex="1">
          <mxGeometry y="150" width="740" height="60" as="geometry" />
        </mxCell>
        <mxCell id="info-r5c1" value="&lt;b&gt;Hậu điều kiện (Post-condition)&lt;/b&gt;" style="shape=partialRectangle;html=1;collapsible=0;dropTarget=0;pointerEvents=0;fillColor=none;top=0;left=0;bottom=0;right=0;strokeColor=inherit;align=left;verticalAlign=middle;spacingLeft=5;whiteSpace=wrap;" parent="info-row5" vertex="1">
          <mxGeometry width="220" height="60" as="geometry" />
        </mxCell>
        <mxCell id="info-r5c2" value="&lt;b&gt;Thành công:&lt;/b&gt; Tổng quan dự án được hiển thị thành công với các tùy chọn lọc, tìm kiếm và phân tích.&lt;br&gt;&lt;b&gt;Thất bại:&lt;/b&gt; Hiển thị thông báo lỗi tương ứng và dữ liệu không thay đổi." style="shape=partialRectangle;html=1;collapsible=0;dropTarget=0;pointerEvents=0;fillColor=none;top=0;left=0;bottom=0;right=0;strokeColor=inherit;align=left;verticalAlign=middle;spacingLeft=5;whiteSpace=wrap;" parent="info-row5" vertex="1">
          <mxGeometry x="220" width="520" height="60" as="geometry" />
        </mxCell>
        <mxCell id="table-mainflow-ganttoverview" value="" style="shape=table;startSize=0;container=1;collapsible=0;childLayout=tableLayout;fixedRows=1;rowLines=1;fontStyle=0;align=center;resizeLast=1;fontFamily=Helvetica;fontSize=12;" parent="spec-container-ganttoverview" vertex="1">
          <mxGeometry y="270" width="740" height="340" as="geometry" />
        </mxCell>
        <mxCell id="mainflow-title-row" style="shape=tableRow;horizontal=0;startSize=0;swimlaneHead=0;swimlaneBody=0;top=0;left=0;bottom=0;right=0;collapsible=0;dropTarget=0;fillColor=none;" parent="table-mainflow-ganttoverview" vertex="1">
          <mxGeometry width="740" height="30" as="geometry" />
        </mxCell>
        <mxCell id="mainflow-title-cell" value="&lt;b&gt;Dòng sự kiện chính (main flow)&lt;/b&gt;" style="shape=partialRectangle;html=1;collapsible=0;dropTarget=0;pointerEvents=0;fillColor=none;top=0;left=0;bottom=0;right=0;strokeColor=inherit;align=center;verticalAlign=middle;" parent="mainflow-title-row" vertex="1">
          <mxGeometry width="740" height="30" as="geometry" />
        </mxCell>
        <mxCell id="mainflow-header-row" style="shape=tableRow;horizontal=0;startSize=0;swimlaneHead=0;swimlaneBody=0;top=0;left=0;bottom=0;right=0;collapsible=0;dropTarget=0;fillColor=#f5f5f5;" parent="table-mainflow-ganttoverview" vertex="1">
          <mxGeometry y="30" width="740" height="30" as="geometry" />
        </mxCell>
        <mxCell id="mainflow-h1" value="&lt;b&gt;Actor&lt;/b&gt;" style="shape=partialRectangle;html=1;collapsible=0;dropTarget=0;pointerEvents=0;fillColor=none;top=0;left=0;bottom=0;right=0;strokeColor=inherit;align=center;verticalAlign=middle;" parent="mainflow-header-row" vertex="1">
          <mxGeometry width="370" height="30" as="geometry" />
        </mxCell>
        <mxCell id="mainflow-h2" value="&lt;b&gt;System&lt;/b&gt;" style="shape=partialRectangle;html=1;collapsible=0;dropTarget=0;pointerEvents=0;fillColor=none;top=0;left=0;bottom=0;right=0;strokeColor=inherit;align=center;verticalAlign=middle;" parent="mainflow-header-row" vertex="1">
          <mxGeometry x="370" width="370" height="30" as="geometry" />
        </mxCell>
        <mxCell id="mainflow-content-row" style="shape=tableRow;horizontal=0;startSize=0;swimlaneHead=0;swimlaneBody=0;top=0;left=0;bottom=0;right=0;collapsible=0;dropTarget=0;fillColor=none;" parent="table-mainflow-ganttoverview" vertex="1">
          <mxGeometry y="60" width="740" height="280" as="geometry" />
        </mxCell>
        <mxCell id="mainflow-r1c1" value="1. Truy cập chức năng tổng quan dự án.&lt;br&gt;2. Chọn một trong các thao tác:&lt;br&gt;   - Xem tổng quan các dự án&lt;br&gt;   - Lọc dự án theo tiêu chí&lt;br&gt;   - Tìm kiếm dự án cụ thể&lt;br&gt;   - Phân tích dữ liệu (biểu đồ tròn/cột)&lt;br&gt;   - Xem chi tiết dự án&lt;br&gt;   - Điều hướng đến Gantt của dự án&lt;br&gt;3. Thực hiện thao tác được chọn.&lt;br&gt;4. Xem kết quả hoặc điều hướng tiếp theo." style="shape=partialRectangle;html=1;collapsible=0;dropTarget=0;pointerEvents=0;fillColor=none;top=0;left=0;bottom=0;right=0;strokeColor=inherit;align=left;verticalAlign=top;whiteSpace=wrap;spacingLeft=5;" parent="mainflow-content-row" vertex="1">
          <mxGeometry width="370" height="280" as="geometry" />
        </mxCell>
        <mxCell id="mainflow-r1c2" value="1. &lt;i&gt;Include: Tải dữ liệu tất cả dự án&lt;/i&gt; từ CSDL.&lt;br&gt;2. Hiển thị giao diện tổng quan với danh sách dự án.&lt;br&gt;3. Xử lý thao tác được chọn:&lt;br&gt;   a) Lọc dự án:&lt;br&gt;   - Áp dụng bộ lọc theo trạng thái, thời gian, người phụ tr책&lt;br&gt;   - Cập nhật danh sách hiển thị&lt;br&gt;   b) Tìm kiếm:&lt;br&gt;   - Thực hiện tìm kiếm theo tên, mô tả&lt;br&gt;   - Highlight kết quả tìm được&lt;br&gt;   c) Phân tích dữ liệu:&lt;br&gt;   - &lt;i&gt;Extend: Xem dạng biểu đồ tròn&lt;/i&gt;&lt;br&gt;   - &lt;i&gt;Extend: Xem dạng biểu đồ cột&lt;/i&gt;&lt;br&gt;   d) Xem chi tiết:&lt;br&gt;   - Hiển thị thông tin chi tiết dự án&lt;br&gt;   - &lt;i&gt;Include: Điều hướng đến Gantt của dự án&lt;/i&gt;&lt;br&gt;4. Cập nhật giao diện theo kết quả.&lt;br&gt;5. Hiển thị thông báo hoặc chuyển trang (nếu cần)." style="shape=partialRectangle;html=1;collapsible=0;dropTarget=0;pointerEvents=0;fillColor=none;top=0;left=0;bottom=0;right=0;strokeColor=inherit;align=left;verticalAlign=top;whiteSpace=wrap;spacingLeft=5;" parent="mainflow-content-row" vertex="1">
          <mxGeometry x="370" width="370" height="280" as="geometry" />
        </mxCell>
        <mxCell id="table-exceptionflow-ganttoverview" value="" style="shape=table;startSize=0;container=1;collapsible=0;childLayout=tableLayout;fixedRows=1;rowLines=1;fontStyle=0;align=center;resizeLast=1;fontFamily=Helvetica;fontSize=12;" parent="spec-container-ganttoverview" vertex="1">
          <mxGeometry y="630" width="740" height="470" as="geometry" />
        </mxCell>
        <mxCell id="exceptionflow-title-row" style="shape=tableRow;horizontal=0;startSize=0;swimlaneHead=0;swimlaneBody=0;top=0;left=0;bottom=0;right=0;collapsible=0;dropTarget=0;fillColor=none;" parent="table-exceptionflow-ganttoverview" vertex="1">
          <mxGeometry width="740" height="30" as="geometry" />
        </mxCell>
        <mxCell id="exceptionflow-title-cell" value="&lt;b&gt;Dòng sự kiện thay thế &amp;amp; ngoại lệ (alternative &amp;amp; exception flow)&lt;/b&gt;" style="shape=partialRectangle;html=1;collapsible=0;dropTarget=0;pointerEvents=0;fillColor=none;top=0;left=0;bottom=0;right=0;strokeColor=inherit;align=center;verticalAlign=middle;" parent="exceptionflow-title-row" vertex="1">
          <mxGeometry width="740" height="30" as="geometry" />
        </mxCell>
        <mxCell id="exceptionflow-header-row" style="shape=tableRow;horizontal=0;startSize=0;swimlaneHead=0;swimlaneBody=0;top=0;left=0;bottom=0;right=0;collapsible=0;dropTarget=0;fillColor=#f5f5f5;" parent="table-exceptionflow-ganttoverview" vertex="1">
          <mxGeometry y="30" width="740" height="30" as="geometry" />
        </mxCell>
        <mxCell id="exceptionflow-h1" value="&lt;b&gt;Điều kiện ngoại lệ&lt;/b&gt;" style="shape=partialRectangle;html=1;collapsible=0;dropTarget=0;pointerEvents=0;fillColor=none;top=0;left=0;bottom=0;right=0;strokeColor=inherit;align=center;verticalAlign=middle;" parent="exceptionflow-header-row" vertex="1">
          <mxGeometry width="370" height="30" as="geometry" />
        </mxCell>
        <mxCell id="exceptionflow-h2" value="&lt;b&gt;Hành động của hệ thống&lt;/b&gt;" style="shape=partialRectangle;html=1;collapsible=0;dropTarget=0;pointerEvents=0;fillColor=none;top=0;left=0;bottom=0;right=0;strokeColor=inherit;align=center;verticalAlign=middle;" parent="exceptionflow-header-row" vertex="1">
          <mxGeometry x="370" width="370" height="30" as="geometry" />
        </mxCell>
        <mxCell id="exceptionflow-row1" style="shape=tableRow;horizontal=0;startSize=0;swimlaneHead=0;swimlaneBody=0;top=0;left=0;bottom=0;right=0;collapsible=0;dropTarget=0;fillColor=none;" parent="table-exceptionflow-ganttoverview" vertex="1">
          <mxGeometry y="60" width="740" height="110" as="geometry" />
        </mxCell>
        <mxCell id="exceptionflow-r1c1" value="&lt;b&gt;1a. Không có dự án nào trong hệ thống&lt;/b&gt;&lt;br&gt;Khi hệ thống chưa có dự án nào được tạo hoặc tất cả dự án đã bị xóa." style="shape=partialRectangle;html=1;collapsible=0;dropTarget=0;pointerEvents=0;fillColor=none;top=0;left=0;bottom=0;right=0;strokeColor=inherit;align=left;verticalAlign=top;whiteSpace=wrap;spacingLeft=5;" parent="exceptionflow-row1" vertex="1">
          <mxGeometry width="370" height="110" as="geometry" />
        </mxCell>
        <mxCell id="exceptionflow-r1c2" value="1. Hiển thị thông báo 'Chưa có dự án nào trong hệ thống'.&lt;br&gt;2. Hiển thị giao diện trống với gợi ý tạo dự án mới.&lt;br&gt;3. Cung cấp nút 'Tạo dự án đầu tiên' để chuyển đến chức năng tạo dự án." style="shape=partialRectangle;html=1;collapsible=0;dropTarget=0;pointerEvents=0;fillColor=none;top=0;left=0;bottom=0;right=0;strokeColor=inherit;align=left;verticalAlign=top;whiteSpace=wrap;spacingLeft=5;" parent="exceptionflow-row1" vertex="1">
          <mxGeometry x="370" width="370" height="110" as="geometry" />
        </mxCell>
        <mxCell id="exceptionflow-row2" style="shape=tableRow;horizontal=0;startSize=0;swimlaneHead=0;swimlaneBody=0;top=0;left=0;bottom=0;right=0;collapsible=0;dropTarget=0;fillColor=none;" parent="table-exceptionflow-ganttoverview" vertex="1">
          <mxGeometry y="170" width="740" height="110" as="geometry" />
        </mxCell>
        <mxCell id="exceptionflow-r2c1" value="&lt;b&gt;2a. Không tìm thấy kết quả tìm kiếm&lt;/b&gt;&lt;br&gt;Khi người dùng tìm kiếm dự án nhưng không có kết quả nào phù hợp." style="shape=partialRectangle;html=1;collapsible=0;dropTarget=0;pointerEvents=0;fillColor=none;top=0;left=0;bottom=0;right=0;strokeColor=inherit;align=left;verticalAlign=top;whiteSpace=wrap;spacingLeft=5;" parent="exceptionflow-row2" vertex="1">
          <mxGeometry width="370" height="110" as="geometry" />
        </mxCell>
        <mxCell id="exceptionflow-r2c2" value="1. Hiển thị thông báo 'Không tìm thấy dự án phù hợp'.&lt;br&gt;2. Giữ nguyên từ khóa tìm kiếm đã nhập.&lt;br&gt;3. Gợi ý thay đổi từ khóa hoặc xóa bộ lọc để mở rộng kết quả.&lt;br&gt;4. Quay lại bước 3 của luồng chính." style="shape=partialRectangle;html=1;collapsible=0;dropTarget=0;pointerEvents=0;fillColor=none;top=0;left=0;bottom=0;right=0;strokeColor=inherit;align=left;verticalAlign=top;whiteSpace=wrap;spacingLeft=5;" parent="exceptionflow-row2" vertex="1">
          <mxGeometry x="370" width="370" height="110" as="geometry" />
        </mxCell>
        <mxCell id="exceptionflow-row3" style="shape=tableRow;horizontal=0;startSize=0;swimlaneHead=0;swimlaneBody=0;top=0;left=0;bottom=0;right=0;collapsible=0;dropTarget=0;fillColor=none;" parent="table-exceptionflow-ganttoverview" vertex="1">
          <mxGeometry y="280" width="740" height="110" as="geometry" />
        </mxCell>
        <mxCell id="exceptionflow-r3c1" value="&lt;b&gt;3a. Lỗi tải dữ liệu&lt;/b&gt;&lt;br&gt;Hệ thống gặp lỗi khi tải dữ liệu dự án từ cơ sở dữ liệu." style="shape=partialRectangle;html=1;collapsible=0;dropTarget=0;pointerEvents=0;fillColor=none;top=0;left=0;bottom=0;right=0;strokeColor=inherit;align=left;verticalAlign=top;whiteSpace=wrap;spacingLeft=5;" parent="exceptionflow-row3" vertex="1">
          <mxGeometry width="370" height="110" as="geometry" />
        </mxCell>
        <mxCell id="exceptionflow-r3c2" value="1. Hiển thị thông báo lỗi 'Không thể tải dữ liệu dự án'.&lt;br&gt;2. Cung cấp nút 'Thử lại' để tải lại dữ liệu.&lt;br&gt;3. Hiển thị icon loading khi đang thử lại.&lt;br&gt;4. Nếu vẫn lỗi, gợi ý liên hệ hỗ trợ kỹ thuật." style="shape=partialRectangle;html=1;collapsible=0;dropTarget=0;pointerEvents=0;fillColor=none;top=0;left=0;bottom=0;right=0;strokeColor=inherit;align=left;verticalAlign=top;whiteSpace=wrap;spacingLeft=5;" parent="exceptionflow-row3" vertex="1">
          <mxGeometry x="370" width="370" height="110" as="geometry" />
        </mxCell>
        <mxCell id="exceptionflow-row4" style="shape=tableRow;horizontal=0;startSize=0;swimlaneHead=0;swimlaneBody=0;top=0;left=0;bottom=0;right=0;collapsible=0;dropTarget=0;fillColor=none;" parent="table-exceptionflow-ganttoverview" vertex="1">
          <mxGeometry y="390" width="740" height="80" as="geometry" />
        </mxCell>
        <mxCell id="exceptionflow-r4c1" value="&lt;b&gt;6a. Không có quyền truy cập dự án&lt;/b&gt;&lt;br&gt;Người dùng cố gắng truy cập chi tiết dự án mà không có quyền." style="shape=partialRectangle;html=1;collapsible=0;dropTarget=0;pointerEvents=0;fillColor=none;top=0;left=0;bottom=0;right=0;strokeColor=inherit;align=left;verticalAlign=top;whiteSpace=wrap;spacingLeft=5;" parent="exceptionflow-row4" vertex="1">
          <mxGeometry width="370" height="80" as="geometry" />
        </mxCell>
        <mxCell id="exceptionflow-r4c2" value="1. Hiển thị thông báo 'Không có quyền truy cập dự án này'.&lt;br&gt;2. Giữ nguyên giao diện tổng quan hiện tại.&lt;br&gt;3. Gợi ý liên hệ quản lý dự án để được cấp quyền." style="shape=partialRectangle;html=1;collapsible=0;dropTarget=0;pointerEvents=0;fillColor=none;top=0;left=0;bottom=0;right=0;strokeColor=inherit;align=left;verticalAlign=top;whiteSpace=wrap;spacingLeft=5;" parent="exceptionflow-row4" vertex="1">
          <mxGeometry x="370" width="370" height="80" as="geometry" />
        </mxCell>
      </root>
    </mxGraphModel>
  </diagram>
</mxfile>
